<?xml version="1.0" standalone="no"?>
<!DOCTYPE svg PUBLIC "-//W3C//DTD SVG 20010904//EN"
 "http://www.w3.org/TR/2001/REC-SVG-20010904/DTD/svg10.dtd">
<svg version="1.0" xmlns="http://www.w3.org/2000/svg"
 width="1228.000000pt" height="1228.000000pt" viewBox="0 0 1228.000000 1228.000000"
 preserveAspectRatio="xMidYMid meet">
<metadata>
Created by potrace 1.14, written by Peter Selinger 2001-2017
</metadata>
<g transform="translate(0.000000,1228.000000) scale(0.100000,-0.100000)"
fill="#000000" stroke="none">
<path d="M793 8504 c-15 -24 -15 -29 -2 -53 29 -52 99 -32 99 29 0 52 -67 69
-97 24z"/>
<path d="M1017 8512 c-33 -36 -8 -92 40 -92 25 0 53 30 53 57 0 46 -62 69 -93
35z"/>
<path d="M1236 8514 c-33 -33 -7 -94 41 -94 25 0 53 30 53 57 0 44 -63 69 -94
37z"/>
<path d="M1452 8518 c-23 -28 -18 -74 9 -88 52 -29 107 26 75 75 -18 27 -66
35 -84 13z"/>
<path d="M1664 8505 c-32 -49 23 -104 75 -75 28 15 29 75 2 90 -32 17 -60 11
-77 -15z"/>
<path d="M1887 8512 c-22 -24 -21 -55 1 -75 36 -33 92 -8 92 41 0 47 -61 69
-93 34z"/>
<path d="M2107 8512 c-33 -36 -8 -92 40 -92 25 0 53 30 53 57 0 46 -62 69 -93
35z"/>
<path d="M2328 8519 c-22 -13 -24 -62 -2 -83 33 -34 94 -5 94 45 0 38 -55 60
-92 38z"/>
<path d="M2535 8506 c-32 -48 22 -104 73 -77 29 16 37 48 18 76 -22 34 -70 34
-91 1z"/>
<path d="M2756 8508 c-21 -30 -20 -44 4 -68 38 -38 90 -15 90 40 0 50 -66 69
-94 28z"/>
<path d="M2977 8512 c-22 -24 -21 -55 1 -75 36 -33 92 -8 92 41 0 47 -61 69
-93 34z"/>
<path d="M3196 8514 c-33 -33 -7 -94 41 -94 25 0 53 30 53 57 0 44 -63 69 -94
37z"/>
<path d="M3418 8519 c-23 -13 -23 -62 -2 -84 24 -23 66 -15 83 16 13 24 13 29
-2 53 -18 27 -49 33 -79 15z"/>
<path d="M3624 8505 c-9 -14 -13 -32 -9 -45 15 -47 86 -50 107 -5 27 59 -62
105 -98 50z"/>
<path d="M3847 8512 c-21 -23 -21 -41 -1 -70 30 -44 94 -18 94 38 0 47 -61 68
-93 32z"/>
<path d="M4067 8512 c-22 -24 -21 -55 1 -75 36 -33 92 -8 92 41 0 47 -61 69
-93 34z"/>
<path d="M4286 8514 c-33 -33 -7 -94 41 -94 25 0 53 30 53 57 0 44 -63 69 -94
37z"/>
<path d="M4508 8519 c-26 -15 -24 -75 3 -89 52 -29 107 26 75 75 -17 26 -48
32 -78 14z"/>
<path d="M4714 8505 c-13 -21 -15 -31 -6 -50 21 -45 93 -42 105 4 15 59 -65
97 -99 46z"/>
<path d="M4937 8512 c-22 -24 -21 -55 1 -75 39 -36 92 -10 92 43 0 47 -61 68
-93 32z"/>
<path d="M5157 8512 c-33 -36 -8 -92 40 -92 25 0 53 30 53 57 0 46 -62 69 -93
35z"/>
<path d="M5376 8514 c-34 -33 -9 -94 38 -94 28 0 56 29 56 57 0 44 -63 69 -94
37z"/>
<path d="M5592 8517 c-43 -19 -37 -88 8 -102 32 -10 70 20 70 54 0 43 -38 66
-78 48z"/>
<path d="M642 8454 c-41 -29 -19 -94 33 -94 52 0 74 65 33 94 -12 9 -27 16
-33 16 -6 0 -21 -7 -33 -16z"/>
<path d="M5732 8414 c-51 -36 -5 -122 50 -93 39 21 49 51 26 81 -20 25 -51 30
-76 12z"/>
<path d="M6207 8353 c-21 -21 11 -63 47 -63 26 0 56 29 56 53 0 14 -10 17 -48
17 -27 0 -52 -3 -55 -7z"/>
<path d="M11739 8340 c13 -11 29 -20 36 -20 7 0 23 9 36 20 l24 19 -60 0 -60
0 24 -19z"/>
<path d="M557 8292 c-22 -24 -21 -55 1 -75 36 -33 92 -8 92 41 0 47 -61 69
-93 34z"/>
<path d="M5767 8232 c-22 -24 -21 -55 1 -75 37 -33 92 -11 92 37 0 48 -62 73
-93 38z"/>
<path d="M11740 8200 c-23 -23 -26 -49 -7 -74 16 -21 60 -24 82 -6 23 19 19
66 -7 84 -30 21 -44 20 -68 -4z"/>
<path d="M6216 8164 c-21 -21 -20 -57 2 -77 24 -22 55 -21 75 1 34 37 11 92
-38 92 -13 0 -31 -7 -39 -16z"/>
<path d="M557 8082 c-33 -36 -8 -92 40 -92 25 0 53 30 53 57 0 46 -62 69 -93
35z"/>
<path d="M5766 8014 c-21 -21 -20 -57 2 -77 24 -22 55 -21 75 1 34 37 11 92
-38 92 -13 0 -31 -7 -39 -16z"/>
<path d="M11737 7982 c-34 -37 -11 -92 38 -92 50 0 73 60 37 93 -24 22 -55 21
-75 -1z"/>
<path d="M6229 7956 c-36 -17 -38 -69 -4 -92 47 -31 98 10 79 64 -11 32 -44
44 -75 28z"/>
<path d="M556 7864 c-33 -33 -7 -94 41 -94 25 0 53 30 53 57 0 44 -63 69 -94
37z"/>
<path d="M2008 7822 c-72 -3 -82 -11 -46 -36 38 -27 100 -19 118 15 13 23 8
25 -72 21z"/>
<path d="M2297 7818 c-22 -13 23 -48 63 -48 34 0 82 31 68 45 -8 8 -119 11
-131 3z"/>
<path d="M2703 7823 c-40 -2 -73 -8 -73 -13 0 -17 44 -40 77 -40 32 0 73 28
73 50 0 6 -1 9 -2 8 -2 -1 -36 -4 -75 -5z"/>
<path d="M2983 7817 c-11 -18 31 -47 67 -47 34 0 55 13 73 45 6 12 -132 14
-140 2z"/>
<path d="M3344 7820 l-29 -5 23 -23 c33 -33 102 -29 122 8 9 16 4 18 -39 22
-26 1 -61 1 -77 -2z"/>
<path d="M3728 7822 c-62 -3 -69 -9 -40 -35 25 -23 85 -22 105 1 30 33 20 38
-65 34z"/>
<path d="M4014 7818 c-3 -4 4 -16 16 -28 32 -32 109 -24 123 14 5 12 -8 15
-65 18 -38 2 -72 0 -74 -4z"/>
<path d="M4339 7822 c-22 -3 -25 -7 -21 -28 6 -31 47 -64 79 -64 29 0 83 50
83 77 0 15 -8 18 -57 18 -32 0 -70 -1 -84 -3z"/>
<path d="M5783 7809 c-24 -9 -39 -48 -29 -74 3 -8 17 -20 30 -27 20 -9 30 -8
51 6 57 37 13 119 -52 95z"/>
<path d="M11737 7762 c-22 -24 -21 -55 1 -75 36 -33 92 -8 92 41 0 47 -61 69
-93 34z"/>
<path d="M6222 7734 c-30 -21 -30 -69 2 -89 59 -39 122 49 64 89 -12 9 -27 16
-33 16 -6 0 -21 -7 -33 -16z"/>
<path d="M6776 7708 c-38 -54 -2 -128 63 -128 49 0 81 32 81 82 0 46 -23 65
-82 67 -38 1 -50 -3 -62 -21z"/>
<path d="M7690 7709 c-24 -44 19 -109 71 -109 41 0 82 40 82 78 0 18 -3 35 -7
39 -3 4 -36 8 -71 10 -57 3 -65 1 -75 -18z"/>
<path d="M10230 7687 c-54 -28 -61 -99 -13 -137 36 -28 70 -25 104 9 35 35 37
71 7 105 -28 31 -65 40 -98 23z"/>
<path d="M568 7656 c-15 -8 -24 -22 -26 -43 -6 -65 88 -83 104 -19 12 50 -31
85 -78 62z"/>
<path d="M975 7615 c-53 -52 -16 -139 60 -139 81 0 111 101 46 151 -27 21 -79
15 -106 -12z"/>
<path d="M5295 7615 c-41 -40 -33 -105 17 -131 38 -20 84 -10 105 22 55 85
-52 180 -122 109z"/>
<path d="M1925 7595 c-52 -51 -16 -145 54 -145 46 0 85 39 85 85 0 74 -88 112
-139 60z"/>
<path d="M5770 7580 c-32 -32 -24 -75 18 -91 58 -22 101 60 50 95 -30 21 -44
20 -68 -4z"/>
<path d="M11736 7544 c-21 -21 -20 -57 2 -77 50 -46 114 13 82 74 -13 23 -62
26 -84 3z"/>
<path d="M4335 7525 c-52 -51 -14 -139 60 -139 29 0 43 7 61 28 49 56 13 136
-61 136 -25 0 -44 -8 -60 -25z"/>
<path d="M11154 7536 c-55 -24 -64 -106 -16 -142 28 -22 80 -17 107 11 65 64
-7 167 -91 131z"/>
<path d="M6217 7512 c-33 -37 -13 -92 33 -92 54 0 80 58 42 93 -24 22 -55 21
-75 -1z"/>
<path d="M562 7434 c-26 -18 -30 -65 -7 -84 22 -18 66 -15 82 6 19 25 16 51
-7 74 -24 24 -38 25 -68 4z"/>
<path d="M7705 7395 c-37 -36 -34 -86 6 -119 40 -34 74 -33 110 3 32 33 36 58
14 100 -25 49 -90 57 -130 16z"/>
<path d="M6785 7375 c-52 -51 -16 -145 55 -145 22 0 41 10 62 30 25 26 29 36
24 63 -13 70 -94 100 -141 52z"/>
<path d="M5767 7362 c-36 -39 -10 -92 43 -92 47 0 68 61 32 93 -24 22 -55 21
-75 -1z"/>
<path d="M10232 7344 c-56 -23 -69 -84 -28 -130 70 -82 193 24 126 108 -24 31
-59 39 -98 22z"/>
<path d="M11740 7330 c-11 -11 -20 -29 -20 -40 0 -22 33 -60 53 -60 27 0 57
31 57 60 0 18 -8 34 -22 44 -30 21 -44 20 -68 -4z"/>
<path d="M6216 7294 c-34 -33 -9 -94 38 -94 28 0 56 29 56 57 0 44 -63 69 -94
37z"/>
<path d="M993 7290 c-74 -30 -45 -160 36 -160 43 0 60 9 76 41 22 42 18 67
-14 100 -30 29 -58 35 -98 19z"/>
<path d="M5312 7290 c-27 -11 -55 -71 -45 -97 13 -36 46 -63 79 -63 46 0 63 9
80 42 39 75 -34 150 -114 118z"/>
<path d="M1939 7265 c-61 -33 -54 -128 11 -155 29 -12 37 -11 68 6 64 34 64
117 1 149 -34 18 -47 18 -80 0z"/>
<path d="M557 7212 c-34 -37 -11 -92 38 -92 50 0 73 60 37 93 -24 22 -55 21
-75 -1z"/>
<path d="M4336 7184 c-55 -55 -18 -144 59 -144 49 0 85 36 85 85 0 77 -89 114
-144 59z"/>
<path d="M11139 7187 c-46 -35 -50 -88 -10 -128 82 -81 197 34 118 119 -23 25
-81 30 -108 9z"/>
<path d="M5767 7142 c-22 -24 -21 -55 1 -75 37 -34 92 -11 92 38 0 50 -60 73
-93 37z"/>
<path d="M11742 7114 c-41 -29 -19 -96 31 -96 36 0 57 19 57 52 0 28 -27 60
-51 60 -8 0 -25 -7 -37 -16z"/>
<path d="M6210 7071 c-15 -29 -12 -56 8 -74 52 -47 126 28 76 77 -22 23 -71
20 -84 -3z"/>
<path d="M7725 7068 c-49 -26 -60 -86 -24 -132 16 -20 29 -26 60 -26 83 0 118
83 60 141 -31 30 -62 36 -96 17z"/>
<path d="M6799 7045 c-58 -32 -56 -121 3 -151 84 -43 168 60 106 130 -28 32
-74 41 -109 21z"/>
<path d="M4516 7018 c-57 -52 -21 -148 57 -148 62 0 101 62 77 121 -23 53 -89
67 -134 27z"/>
<path d="M4855 7014 c-52 -56 -14 -143 63 -144 75 0 114 104 56 149 -38 30
-89 28 -119 -5z"/>
<path d="M5206 7018 c-57 -52 -21 -148 57 -148 62 0 101 62 77 121 -23 53 -89
67 -134 27z"/>
<path d="M556 6994 c-33 -33 -7 -94 41 -94 25 0 53 30 53 57 0 44 -63 69 -94
37z"/>
<path d="M10205 6985 c-17 -16 -25 -35 -25 -60 0 -25 8 -44 25 -60 53 -54 145
-16 145 60 0 49 -36 85 -85 85 -25 0 -44 -8 -60 -25z"/>
<path d="M1010 6953 c-34 -12 -60 -47 -60 -79 0 -46 9 -63 41 -79 42 -22 67
-18 100 14 46 46 37 106 -21 136 -31 16 -36 17 -60 8z"/>
<path d="M5766 6924 c-21 -21 -20 -57 2 -77 50 -46 114 13 82 74 -13 23 -62
26 -84 3z"/>
<path d="M1924 6906 c-59 -50 -21 -146 57 -146 29 0 43 7 63 31 14 17 26 41
26 54 0 13 -12 37 -26 54 -33 39 -80 42 -120 7z"/>
<path d="M11737 6892 c-34 -37 -11 -92 38 -92 50 0 73 60 37 93 -24 22 -55 21
-75 -1z"/>
<path d="M6222 6864 c-32 -22 -30 -69 4 -91 24 -15 29 -15 53 -2 34 19 39 61
12 88 -25 25 -39 26 -69 5z"/>
<path d="M11129 6831 c-46 -46 -34 -112 25 -136 39 -17 71 -9 97 21 26 31 30
53 15 89 -26 62 -89 74 -137 26z"/>
<path d="M550 6771 c-15 -29 -12 -56 8 -74 52 -47 126 28 76 77 -22 23 -71 20
-84 -3z"/>
<path d="M7745 6732 c-64 -13 -88 -100 -40 -147 52 -53 144 -14 145 61 0 57
-49 97 -105 86z"/>
<path d="M5769 6709 c-27 -27 -22 -69 12 -88 24 -13 29 -13 53 2 34 22 36 69
4 91 -30 21 -44 20 -69 -5z"/>
<path d="M6784 6686 c-59 -50 -22 -146 56 -146 23 0 44 8 58 20 85 79 -26 202
-114 126z"/>
<path d="M11736 6674 c-21 -21 -20 -57 2 -77 24 -22 55 -21 75 1 34 37 11 92
-38 92 -13 0 -31 -7 -39 -16z"/>
<path d="M10209 6641 c-20 -20 -29 -39 -29 -61 0 -37 47 -90 80 -90 52 0 89
38 90 92 0 28 -7 42 -31 62 -40 34 -74 33 -110 -3z"/>
<path d="M6217 6642 c-21 -23 -22 -66 -2 -82 8 -7 27 -12 42 -12 50 0 72 67
31 96 -29 21 -51 20 -71 -2z"/>
<path d="M987 6599 c-24 -14 -49 -73 -40 -96 23 -65 102 -85 148 -38 70 69
-23 184 -108 134z"/>
<path d="M1939 6575 c-38 -21 -55 -67 -39 -105 14 -33 55 -60 90 -60 33 0 80
53 80 89 0 63 -76 107 -131 76z"/>
<path d="M562 6564 c-42 -29 -17 -104 35 -104 20 0 53 38 53 60 0 22 -33 60
-53 60 -7 0 -23 -7 -35 -16z"/>
<path d="M11152 6504 c-59 -24 -69 -88 -23 -135 37 -36 79 -38 117 -5 36 30
38 84 5 120 -28 30 -60 37 -99 20z"/>
<path d="M5772 6494 c-41 -29 -19 -96 31 -96 36 0 57 19 57 53 0 27 -30 59
-55 59 -6 0 -21 -7 -33 -16z"/>
<path d="M11753 6469 c-26 -9 -41 -55 -26 -78 6 -9 22 -20 36 -25 21 -8 31 -6
47 9 49 44 5 117 -57 94z"/>
<path d="M6217 6422 c-33 -37 -13 -92 33 -92 54 0 80 58 42 93 -24 22 -55 21
-75 -1z"/>
<path d="M7715 6375 c-35 -34 -34 -93 0 -125 56 -52 145 -13 145 63 -1 76 -93
115 -145 62z"/>
<path d="M8059 6371 c-46 -47 -37 -106 22 -136 91 -48 173 81 92 145 -37 29
-79 26 -114 -9z"/>
<path d="M8405 6375 c-35 -34 -34 -93 0 -125 56 -52 145 -13 145 63 -1 76 -93
115 -145 62z"/>
<path d="M8749 6371 c-46 -47 -37 -106 22 -136 91 -48 173 81 92 145 -37 29
-79 26 -114 -9z"/>
<path d="M9095 6375 c-35 -34 -34 -93 0 -125 56 -52 145 -13 145 63 -1 76 -93
115 -145 62z"/>
<path d="M9439 6371 c-46 -47 -37 -106 22 -136 91 -48 173 81 92 145 -37 29
-79 26 -114 -9z"/>
<path d="M9785 6375 c-35 -34 -34 -93 0 -125 56 -52 145 -13 145 63 -1 76 -93
115 -145 62z"/>
<path d="M10129 6371 c-46 -47 -37 -106 22 -136 91 -48 173 81 92 145 -37 29
-79 26 -114 -9z"/>
<path d="M6799 6355 c-14 -8 -32 -28 -39 -45 -24 -57 24 -120 91 -120 32 0 79
53 79 90 0 22 -9 41 -29 61 -32 32 -62 36 -102 14z"/>
<path d="M562 6344 c-26 -18 -30 -65 -7 -84 38 -32 95 -4 95 46 0 22 -33 54
-55 54 -6 0 -21 -7 -33 -16z"/>
<path d="M5767 6272 c-36 -39 -10 -92 43 -92 47 0 68 61 32 93 -24 22 -55 21
-75 -1z"/>
<path d="M993 6258 c-12 -6 -29 -26 -38 -44 -28 -59 14 -124 80 -124 37 0 85
50 85 89 0 60 -74 106 -127 79z"/>
<path d="M3227 6250 c-50 -39 -42 -117 15 -146 89 -46 170 66 99 137 -35 35
-77 38 -114 9z"/>
<path d="M3571 6244 c-56 -47 -30 -136 45 -150 44 -8 94 35 94 81 0 47 -8 64
-41 80 -40 21 -63 19 -98 -11z"/>
<path d="M3917 6250 c-50 -39 -42 -117 15 -146 89 -46 170 66 99 137 -35 35
-77 38 -114 9z"/>
<path d="M4261 6244 c-56 -47 -30 -136 45 -150 44 -8 94 35 94 81 0 47 -8 64
-41 80 -40 21 -63 19 -98 -11z"/>
<path d="M4607 6250 c-50 -39 -42 -117 15 -146 89 -46 170 66 99 137 -35 35
-77 38 -114 9z"/>
<path d="M4951 6244 c-56 -47 -30 -136 45 -150 44 -8 94 35 94 81 0 47 -8 64
-41 80 -40 21 -63 19 -98 -11z"/>
<path d="M5295 6248 c-80 -70 -1 -190 100 -152 21 8 45 56 45 89 0 37 -50 85
-89 85 -17 0 -41 -10 -56 -22z"/>
<path d="M11742 6244 c-28 -19 -29 -57 -2 -84 24 -24 38 -25 68 -4 14 10 22
26 22 44 0 28 -30 60 -55 60 -6 0 -21 -7 -33 -16z"/>
<path d="M1916 6209 c-14 -17 -26 -41 -26 -54 0 -13 12 -37 26 -54 45 -54 133
-35 150 34 22 87 -92 144 -150 74z"/>
<path d="M6216 6204 c-9 -8 -16 -26 -16 -39 0 -50 60 -73 93 -37 34 37 11 92
-38 92 -13 0 -31 -7 -39 -16z"/>
<path d="M11129 6141 c-35 -35 -38 -77 -9 -114 39 -50 117 -42 146 15 46 89
-66 170 -137 99z"/>
<path d="M557 6122 c-34 -37 -11 -92 38 -92 50 0 73 60 37 93 -24 22 -55 21
-75 -1z"/>
<path d="M7827 6060 c-81 -64 1 -193 92 -145 59 30 68 89 22 136 -35 35 -77
38 -114 9z"/>
<path d="M8166 6054 c-34 -34 -35 -83 -2 -120 51 -60 146 -21 146 58 0 80 -88
118 -144 62z"/>
<path d="M8517 6060 c-81 -64 1 -193 92 -145 59 30 68 89 22 136 -35 35 -77
38 -114 9z"/>
<path d="M8856 6054 c-34 -34 -35 -83 -2 -120 51 -60 146 -21 146 58 0 80 -88
118 -144 62z"/>
<path d="M9207 6060 c-81 -64 1 -193 92 -145 59 30 68 89 22 136 -35 35 -77
38 -114 9z"/>
<path d="M9546 6054 c-34 -34 -35 -83 -2 -120 51 -60 146 -21 146 58 0 80 -88
118 -144 62z"/>
<path d="M9897 6060 c-81 -64 1 -193 92 -145 59 30 68 89 22 136 -35 35 -77
38 -114 9z"/>
<path d="M5767 6052 c-22 -24 -21 -55 1 -75 37 -34 92 -11 92 38 0 50 -60 73
-93 37z"/>
<path d="M10206 6024 c-34 -34 -35 -83 -2 -120 51 -60 146 -21 146 58 0 80
-88 118 -144 62z"/>
<path d="M11737 6022 c-35 -38 -13 -92 36 -92 40 0 57 15 57 50 0 52 -60 78
-93 42z"/>
<path d="M6780 5995 c-53 -56 -15 -145 62 -145 86 0 118 104 49 157 -28 22
-85 16 -111 -12z"/>
<path d="M6229 5996 c-48 -23 -28 -106 26 -106 44 0 70 57 43 92 -19 23 -42
28 -69 14z"/>
<path d="M3250 5963 c-62 -23 -81 -103 -35 -148 52 -53 145 -15 145 59 0 58
-62 108 -110 89z"/>
<path d="M3583 5955 c-60 -26 -71 -89 -24 -136 35 -35 77 -38 114 -9 53 42 39
127 -24 149 -18 6 -32 11 -33 11 -1 -1 -15 -7 -33 -15z"/>
<path d="M3940 5963 c-62 -23 -81 -103 -35 -148 52 -53 145 -15 145 59 0 58
-62 108 -110 89z"/>
<path d="M4273 5955 c-60 -26 -71 -89 -24 -136 35 -35 77 -38 114 -9 53 42 39
127 -24 149 -18 6 -32 11 -33 11 -1 -1 -15 -7 -33 -15z"/>
<path d="M556 5904 c-33 -33 -7 -94 41 -94 25 0 53 30 53 57 0 44 -63 69 -94
37z"/>
<path d="M975 5897 c-50 -42 -32 -123 33 -148 29 -11 86 11 101 39 47 87 -60
173 -134 109z"/>
<path d="M5309 5905 c-32 -18 -52 -63 -43 -99 8 -35 49 -66 86 -66 40 0 88 48
88 89 0 63 -76 107 -131 76z"/>
<path d="M1940 5887 c-51 -26 -62 -104 -21 -141 10 -9 35 -19 54 -23 31 -5 40
-1 67 25 40 41 41 83 1 123 -32 31 -61 36 -101 16z"/>
<path d="M5760 5831 c-23 -43 2 -91 47 -91 42 0 71 68 41 98 -20 20 -76 15
-88 -7z"/>
<path d="M7705 5825 c-17 -16 -25 -35 -25 -60 0 -25 8 -44 25 -60 16 -17 35
-25 60 -25 25 0 44 8 60 25 17 16 25 35 25 60 0 25 -8 44 -25 60 -16 17 -35
25 -60 25 -25 0 -44 -8 -60 -25z"/>
<path d="M11153 5815 c-58 -25 -70 -83 -27 -134 47 -56 136 -30 150 45 5 26 1
37 -23 62 -35 38 -59 45 -100 27z"/>
<path d="M11737 5802 c-22 -24 -21 -55 1 -75 37 -34 92 -11 92 38 0 50 -60 73
-93 37z"/>
<path d="M6222 5774 c-42 -29 -17 -104 35 -104 20 0 53 38 53 60 0 22 -33 60
-53 60 -7 0 -23 -7 -35 -16z"/>
<path d="M4339 5681 c-41 -41 -40 -90 2 -125 35 -30 58 -32 98 -11 32 16 41
33 41 78 -1 36 -15 58 -47 75 -35 19 -63 14 -94 -17z"/>
<path d="M10243 5703 c-32 -6 -63 -50 -63 -90 0 -73 93 -111 145 -58 63 62 6
164 -82 148z"/>
<path d="M552 5688 c-18 -18 -14 -63 6 -81 50 -46 114 13 82 74 -12 22 -68 27
-88 7z"/>
<path d="M6799 5665 c-14 -8 -32 -28 -39 -45 -24 -57 24 -120 91 -120 32 0 79
53 79 90 0 22 -9 41 -29 61 -32 32 -62 36 -102 14z"/>
<path d="M5769 5619 c-27 -27 -22 -69 12 -88 24 -13 29 -13 53 2 34 22 36 69
4 91 -30 21 -44 20 -69 -5z"/>
<path d="M11736 5584 c-21 -21 -20 -57 2 -77 50 -46 114 13 82 74 -13 23 -62
26 -84 3z"/>
<path d="M993 5568 c-12 -6 -29 -26 -38 -44 -28 -59 14 -124 80 -124 37 0 85
50 85 89 0 60 -74 106 -127 79z"/>
<path d="M5286 5539 c-14 -17 -26 -41 -26 -54 0 -13 12 -37 26 -54 43 -51 119
-41 144 18 38 93 -80 167 -144 90z"/>
<path d="M6217 5552 c-21 -23 -22 -66 -2 -82 22 -18 66 -15 82 6 42 57 -33
128 -80 76z"/>
<path d="M1916 5519 c-14 -17 -26 -41 -26 -54 0 -13 12 -37 26 -54 43 -51 119
-41 144 18 25 62 -14 121 -79 121 -32 0 -44 -6 -65 -31z"/>
<path d="M7725 5498 c-31 -18 -44 -40 -45 -75 0 -45 9 -62 41 -78 40 -21 63
-19 98 11 42 35 43 84 2 125 -31 30 -63 36 -96 17z"/>
<path d="M562 5474 c-42 -29 -17 -104 35 -104 20 0 53 38 53 60 0 22 -33 60
-53 60 -7 0 -23 -7 -35 -16z"/>
<path d="M11129 5451 c-35 -35 -38 -77 -9 -114 39 -50 117 -42 146 15 46 89
-66 170 -137 99z"/>
<path d="M5772 5404 c-41 -29 -19 -96 31 -96 36 0 57 19 57 52 0 28 -27 60
-51 60 -8 0 -25 -7 -37 -16z"/>
<path d="M11753 5380 c-26 -11 -41 -56 -26 -79 6 -9 22 -20 36 -25 55 -20 93
64 45 98 -25 18 -25 18 -55 6z"/>
<path d="M4335 5335 c-54 -53 -16 -145 58 -145 52 0 87 32 87 81 0 53 -35 89
-85 89 -25 0 -44 -8 -60 -25z"/>
<path d="M10206 5334 c-34 -34 -35 -83 -2 -120 51 -60 146 -21 146 58 0 80
-88 118 -144 62z"/>
<path d="M6216 5334 c-9 -8 -16 -26 -16 -39 0 -13 7 -31 16 -39 33 -34 94 -9
94 38 0 47 -62 73 -94 40z"/>
<path d="M6780 5305 c-53 -56 -15 -145 62 -145 86 0 118 104 49 157 -28 22
-85 16 -111 -12z"/>
<path d="M557 5252 c-21 -23 -22 -66 -2 -82 22 -18 66 -15 82 6 42 57 -33 128
-80 76z"/>
<path d="M974 5206 c-50 -42 -31 -122 34 -147 29 -11 86 11 101 39 47 88 -60
173 -135 108z"/>
<path d="M5313 5220 c-31 -13 -56 -65 -48 -101 8 -37 49 -69 87 -69 40 0 88
48 88 89 0 59 -71 105 -127 81z"/>
<path d="M1940 5197 c-51 -26 -62 -104 -21 -141 10 -9 35 -19 54 -23 31 -5 40
-1 67 25 40 41 41 83 1 123 -32 31 -61 36 -101 16z"/>
<path d="M5767 5182 c-34 -37 -11 -92 38 -92 50 0 73 60 37 93 -24 22 -55 21
-75 -1z"/>
<path d="M11742 5154 c-28 -19 -29 -57 -2 -84 24 -24 38 -25 68 -4 14 10 22
26 22 44 0 28 -30 60 -55 60 -6 0 -21 -7 -33 -16z"/>
<path d="M7705 5135 c-36 -35 -35 -96 1 -124 60 -47 144 -10 144 64 0 25 -8
44 -25 60 -16 17 -35 25 -60 25 -25 0 -44 -8 -60 -25z"/>
<path d="M11153 5125 c-58 -25 -70 -83 -27 -134 31 -37 78 -42 117 -11 51 41
42 116 -18 144 -39 19 -32 19 -72 1z"/>
<path d="M6216 5114 c-21 -21 -20 -57 2 -77 24 -22 55 -21 75 1 34 37 11 92
-38 92 -13 0 -31 -7 -39 -16z"/>
<path d="M556 5034 c-34 -34 -9 -94 39 -94 50 0 73 60 37 93 -23 21 -56 22
-76 1z"/>
<path d="M4341 4994 c-25 -20 -31 -34 -31 -64 0 -30 6 -44 31 -64 35 -30 58
-32 98 -11 32 16 41 33 41 78 -1 36 -15 58 -47 75 -33 18 -59 14 -92 -14z"/>
<path d="M10234 5010 c-56 -23 -72 -103 -29 -145 55 -56 145 -16 145 63 0 61
-62 105 -116 82z"/>
<path d="M6802 4980 c-12 -5 -30 -25 -39 -45 -16 -33 -16 -37 0 -70 17 -35 49
-55 88 -55 32 0 79 53 79 90 0 22 -9 41 -29 61 -30 30 -58 35 -99 19z"/>
<path d="M5766 4964 c-21 -21 -20 -57 2 -77 37 -34 92 -11 92 38 0 30 -25 55
-55 55 -13 0 -31 -7 -39 -16z"/>
<path d="M11737 4932 c-35 -38 -13 -92 36 -92 40 0 57 15 57 50 0 52 -60 78
-93 42z"/>
<path d="M6229 4906 c-56 -27 -21 -121 38 -100 36 13 49 37 38 70 -12 33 -44
46 -76 30z"/>
<path d="M989 4875 c-77 -43 -43 -165 46 -165 37 0 85 50 85 89 0 63 -76 107
-131 76z"/>
<path d="M5286 4849 c-28 -33 -32 -59 -14 -92 17 -33 39 -46 76 -47 45 0 67
13 82 49 38 93 -80 167 -144 90z"/>
<path d="M1916 4829 c-14 -17 -26 -41 -26 -54 0 -13 12 -37 26 -54 43 -51 119
-41 144 18 25 62 -14 121 -79 121 -32 0 -44 -6 -65 -31z"/>
<path d="M556 4814 c-21 -21 -20 -57 2 -77 24 -22 55 -21 75 1 34 37 11 92
-38 92 -13 0 -31 -7 -39 -16z"/>
<path d="M7725 4808 c-31 -18 -44 -40 -45 -75 0 -45 9 -62 41 -78 40 -21 63
-19 98 11 25 20 31 34 31 64 0 65 -71 109 -125 78z"/>
<path d="M11129 4761 c-35 -35 -38 -77 -9 -114 39 -50 117 -42 146 15 46 89
-66 170 -137 99z"/>
<path d="M5790 4762 c-40 -12 -53 -67 -22 -95 38 -35 92 -8 92 45 0 35 -36 61
-70 50z"/>
<path d="M11737 4712 c-22 -24 -21 -55 1 -75 37 -34 92 -11 92 38 0 50 -60 73
-93 37z"/>
<path d="M6222 4684 c-42 -29 -17 -104 35 -104 22 0 53 38 53 64 0 24 -32 56
-55 56 -6 0 -21 -7 -33 -16z"/>
<path d="M4335 4645 c-56 -55 -16 -145 63 -145 51 0 82 32 82 84 0 77 -91 116
-145 61z"/>
<path d="M10206 4645 c-55 -51 -18 -149 57 -149 52 0 87 35 87 86 0 79 -86
117 -144 63z"/>
<path d="M6776 4609 c-14 -17 -26 -41 -26 -54 0 -13 12 -37 26 -54 52 -62 154
-28 154 52 0 82 -101 119 -154 56z"/>
<path d="M569 4606 c-56 -27 -21 -121 38 -100 36 13 49 37 38 70 -12 33 -44
46 -76 30z"/>
<path d="M2013 4580 c-73 -44 -43 -160 43 -160 95 0 124 124 39 164 -42 20
-43 20 -82 -4z"/>
<path d="M2375 4591 c-63 -27 -80 -106 -31 -147 57 -50 146 -14 146 60 0 61
-63 109 -115 87z"/>
<path d="M2703 4580 c-73 -44 -43 -160 43 -160 95 0 124 124 39 164 -42 20
-43 20 -82 -4z"/>
<path d="M3065 4591 c-63 -27 -80 -106 -31 -147 57 -50 146 -14 146 60 0 61
-63 109 -115 87z"/>
<path d="M3393 4580 c-52 -31 -57 -97 -11 -140 45 -41 129 -12 143 49 9 41
-17 86 -56 100 -41 14 -38 14 -76 -9z"/>
<path d="M3755 4591 c-50 -21 -73 -76 -50 -120 29 -57 94 -69 139 -25 63 64
-7 179 -89 145z"/>
<path d="M4083 4580 c-52 -31 -57 -97 -11 -140 45 -41 129 -12 143 49 9 41
-17 86 -56 100 -41 14 -38 14 -76 -9z"/>
<path d="M5772 4534 c-32 -22 -30 -69 4 -91 24 -15 29 -15 53 -2 36 20 41 71
9 93 -28 20 -38 20 -66 0z"/>
<path d="M975 4515 c-34 -33 -34 -93 -1 -124 56 -53 146 -13 146 65 0 75 -92
113 -145 59z"/>
<path d="M5289 4511 c-20 -20 -29 -39 -29 -61 0 -41 47 -90 87 -90 62 0 106
65 83 120 -14 33 -55 60 -90 60 -12 0 -35 -13 -51 -29z"/>
<path d="M11736 4494 c-33 -33 -7 -94 41 -94 42 0 71 68 41 98 -17 17 -64 15
-82 -4z"/>
<path d="M6217 4462 c-20 -22 -22 -63 -5 -80 20 -20 76 -15 88 7 15 29 12 56
-8 74 -24 22 -55 21 -75 -1z"/>
<path d="M7705 4445 c-57 -56 -21 -145 57 -145 52 0 88 35 88 85 0 76 -92 114
-145 60z"/>
<path d="M11150 4432 c-57 -28 -66 -97 -18 -142 68 -63 177 25 134 108 -12 23
-58 52 -80 52 -1 0 -17 -8 -36 -18z"/>
<path d="M562 4384 c-42 -29 -17 -104 35 -104 22 0 53 38 53 64 0 24 -32 56
-55 56 -6 0 -21 -7 -33 -16z"/>
<path d="M1235 4315 c-53 -52 -15 -145 59 -145 79 0 119 88 66 145 -32 34 -91
35 -125 0z"/>
<path d="M5020 4315 c-53 -56 -15 -145 62 -145 52 0 88 35 88 85 0 77 -97 116
-150 60z"/>
<path d="M5767 4312 c-34 -37 -11 -94 36 -94 36 0 57 19 57 52 0 52 -60 79
-93 42z"/>
<path d="M10234 4320 c-56 -23 -72 -103 -29 -145 55 -56 145 -16 145 63 0 61
-62 105 -116 82z"/>
<path d="M6803 4290 c-30 -12 -56 -65 -48 -100 8 -37 34 -60 78 -67 31 -5 40
-1 67 25 40 41 41 83 1 123 -30 29 -58 35 -98 19z"/>
<path d="M11739 4279 c-27 -27 -22 -69 12 -88 24 -13 29 -13 53 2 34 22 36 69
4 91 -30 21 -44 20 -69 -5z"/>
<path d="M1579 4261 c-20 -20 -29 -39 -29 -61 0 -37 47 -90 80 -90 35 0 76 27
90 60 16 39 -1 85 -41 105 -42 22 -67 18 -100 -14z"/>
<path d="M4699 4275 c-14 -8 -32 -28 -39 -45 -24 -57 24 -120 91 -120 32 0 79
53 79 90 0 22 -9 41 -29 61 -32 32 -62 36 -102 14z"/>
<path d="M1920 4255 c-34 -37 -33 -90 4 -121 59 -51 146 -15 146 61 0 77 -97
116 -150 60z"/>
<path d="M2265 4255 c-54 -53 -16 -145 59 -145 79 0 119 88 66 145 -32 34 -91
35 -125 0z"/>
<path d="M2610 4255 c-34 -37 -33 -90 4 -121 59 -51 146 -15 146 61 0 77 -97
116 -150 60z"/>
<path d="M2955 4255 c-54 -53 -16 -145 59 -145 79 0 119 88 66 145 -32 34 -91
35 -125 0z"/>
<path d="M3300 4255 c-53 -56 -15 -145 62 -145 52 0 88 35 88 85 0 77 -97 116
-150 60z"/>
<path d="M3645 4255 c-54 -53 -16 -145 59 -145 79 0 119 88 66 145 -32 34 -91
35 -125 0z"/>
<path d="M3990 4255 c-53 -56 -15 -145 62 -145 52 0 88 35 88 85 0 77 -97 116
-150 60z"/>
<path d="M4335 4255 c-54 -53 -16 -145 59 -145 79 0 119 88 66 145 -32 34 -91
35 -125 0z"/>
<path d="M6216 4244 c-34 -33 -9 -94 38 -94 28 0 56 29 56 57 0 44 -63 69 -94
37z"/>
<path d="M557 4162 c-20 -22 -22 -63 -5 -80 20 -20 76 -15 88 7 15 29 12 56
-8 74 -24 22 -55 21 -75 -1z"/>
<path d="M7020 4153 c-62 -23 -81 -103 -35 -148 55 -56 145 -16 145 63 0 57
-61 104 -110 85z"/>
<path d="M7347 4144 c-28 -15 -47 -49 -47 -85 0 -32 53 -79 90 -79 22 0 41 9
61 29 46 46 37 106 -21 136 -36 18 -47 18 -83 -1z"/>
<path d="M7710 4153 c-62 -23 -81 -103 -35 -148 55 -56 145 -16 145 63 0 57
-61 104 -110 85z"/>
<path d="M10399 4145 c-32 -18 -52 -63 -43 -99 8 -35 49 -66 86 -66 40 0 88
48 88 89 0 63 -76 107 -131 76z"/>
<path d="M10754 4150 c-52 -21 -71 -98 -34 -138 44 -47 111 -39 143 15 16 28
17 38 7 68 -7 22 -23 41 -40 50 -32 17 -45 18 -76 5z"/>
<path d="M11089 4145 c-32 -18 -52 -63 -43 -99 8 -35 49 -66 86 -66 40 0 88
48 88 89 0 63 -76 107 -131 76z"/>
<path d="M5767 4092 c-34 -37 -11 -92 38 -92 30 0 55 25 55 55 0 50 -60 73
-93 37z"/>
<path d="M11737 4062 c-34 -37 -11 -92 38 -92 30 0 55 25 55 55 0 50 -60 73
-93 37z"/>
<path d="M6215 4030 c-15 -16 -17 -26 -9 -47 13 -36 37 -49 70 -38 33 12 46
44 30 76 -16 33 -65 38 -91 9z"/>
<path d="M556 3944 c-34 -33 -9 -94 38 -94 28 0 56 29 56 57 0 44 -63 69 -94
37z"/>
<path d="M11668 3909 c-22 -13 -24 -62 -2 -83 21 -21 57 -20 77 2 46 50 -16
116 -75 81z"/>
<path d="M6305 3880 c-15 -16 -17 -26 -9 -47 13 -36 37 -49 70 -38 33 12 46
44 30 76 -16 33 -65 38 -91 9z"/>
<path d="M5766 3874 c-21 -21 -20 -57 2 -77 50 -46 114 13 82 74 -13 23 -62
26 -84 3z"/>
<path d="M6477 3832 c-35 -38 -8 -92 45 -92 31 0 51 21 51 57 0 48 -64 71 -96
35z"/>
<path d="M6697 3832 c-34 -37 -11 -92 38 -92 30 0 55 25 55 55 0 50 -60 73
-93 37z"/>
<path d="M6916 3834 c-23 -22 -20 -71 3 -84 29 -15 56 -12 74 8 47 52 -28 126
-77 76z"/>
<path d="M7142 3843 c-7 -3 -18 -16 -23 -30 -21 -56 54 -100 94 -55 43 47 -10
110 -71 85z"/>
<path d="M7343 3824 c-15 -24 -15 -29 -2 -53 20 -36 71 -41 93 -9 21 30 20 44
-4 68 -28 28 -66 26 -87 -6z"/>
<path d="M7567 3832 c-34 -38 -8 -92 44 -92 34 0 49 18 49 57 0 50 -59 72 -93
35z"/>
<path d="M7787 3832 c-34 -37 -11 -92 38 -92 50 0 73 60 37 93 -24 22 -55 21
-75 -1z"/>
<path d="M8006 3834 c-19 -18 -21 -65 -4 -82 18 -18 63 -14 81 6 47 52 -28
126 -77 76z"/>
<path d="M8221 3831 c-25 -25 -26 -39 -5 -69 22 -32 69 -30 91 4 15 24 15 29
2 53 -19 34 -61 39 -88 12z"/>
<path d="M8436 3828 c-21 -29 -20 -51 2 -71 26 -24 68 -21 86 5 21 30 20 44
-4 68 -27 27 -65 26 -84 -2z"/>
<path d="M8657 3832 c-34 -38 -8 -92 44 -92 32 0 49 17 49 51 0 53 -59 79 -93
41z"/>
<path d="M8877 3832 c-34 -37 -11 -92 38 -92 50 0 73 60 37 93 -24 22 -55 21
-75 -1z"/>
<path d="M9096 3837 c-21 -16 -24 -60 -6 -82 17 -21 63 -19 83 3 47 52 -21
120 -77 79z"/>
<path d="M9303 3824 c-15 -24 -15 -29 -2 -53 11 -20 22 -26 49 -26 27 0 38 6
49 26 13 24 13 29 -2 53 -12 18 -26 26 -47 26 -21 0 -35 -8 -47 -26z"/>
<path d="M9526 3828 c-9 -12 -16 -30 -16 -39 0 -23 33 -49 62 -49 31 0 51 21
51 57 0 50 -68 72 -97 31z"/>
<path d="M9747 3832 c-47 -52 11 -115 74 -82 23 13 26 62 3 84 -21 21 -57 20
-77 -2z"/>
<path d="M9966 3834 c-34 -34 -9 -94 39 -94 50 0 73 60 37 93 -23 21 -56 22
-76 1z"/>
<path d="M10186 3837 c-21 -16 -24 -60 -6 -82 17 -21 63 -19 83 3 47 52 -21
120 -77 79z"/>
<path d="M10393 3824 c-15 -24 -15 -29 -2 -53 11 -20 22 -26 49 -26 27 0 38 6
49 26 13 24 13 29 -2 53 -12 18 -26 26 -47 26 -21 0 -35 -8 -47 -26z"/>
<path d="M10617 3832 c-35 -38 -8 -92 45 -92 31 0 51 21 51 57 0 48 -64 71
-96 35z"/>
<path d="M10837 3832 c-34 -37 -11 -92 38 -92 30 0 55 25 55 55 0 50 -60 73
-93 37z"/>
<path d="M11056 3834 c-23 -22 -20 -71 3 -84 44 -23 91 -1 91 44 0 47 -62 73
-94 40z"/>
<path d="M11282 3843 c-7 -3 -18 -16 -23 -30 -21 -56 54 -100 94 -55 43 47
-10 110 -71 85z"/>
<path d="M11483 3824 c-15 -24 -15 -29 -2 -53 29 -51 119 -33 119 24 0 55 -86
76 -117 29z"/>
</g>
</svg>
